HIERARCHY
ROOT Hips
{
  OFFSET -12.0419 96.8532 -84.5856
  CHANNELS 6 Xposition Yposition Zposition Zrotation Xrotation Yrotation
  JOINT ToSpine
  {
    OFFSET -2.69724 7.43032 -0.144315
    CHANNELS 3 Zrotation Xrotation Yrotation
    JOINT Spine
    {
      OFFSET -0.0310711 10.7595 1.96963
      CHANNELS 3 Zrotation Xrotation Yrotation
      JOINT Spine1
      {
        OFFSET 13.1342 3.43533 0.764692
        CHANNELS 3 Zrotation Xrotation Yrotation
        JOINT Neck
        {
          OFFSET 29.8703 7.82586 -0.130764
          CHANNELS 3 Zrotation Xrotation Yrotation
          JOINT Head
          {
            OFFSET 9.52751 0.295786 -0.907742
            CHANNELS 3 Zrotation Xrotation Yrotation
            End Site
            {
              OFFSET 16.4037 0.713936 2.7358
            }
          }
        }
        JOINT LeftShoulder
        {
          OFFSET 27.5574 4.95586 2.47156
          CHANNELS 3 Zrotation Xrotation Yrotation
          JOINT LeftArm
          {
            OFFSET 1.20734 -0.998971 20.1238
            CHANNELS 3 Zrotation Xrotation Yrotation
            JOINT LeftForeArm
            {
              OFFSET 26.8049 -0.0536703 -0.155908
              CHANNELS 3 Zrotation Xrotation Yrotation
              JOINT LeftHand
              {
                OFFSET 26.6817 0 0.320147
                CHANNELS 3 Zrotation Xrotation Yrotation
                End Site
                {
                  OFFSET 18.6119 0 0.382219
                }
              }
            }
          }
        }
        JOINT RightShoulder
        {
          OFFSET 27.5927 4.71444 -2.65209
          CHANNELS 3 Zrotation Xrotation Yrotation
          JOINT RightArm
          {
            OFFSET 2.83739 -1.17114 -18.7564
            CHANNELS 3 Zrotation Xrotation Yrotation
            JOINT RightForeArm
            {
              OFFSET 28.839 -0.0548439 1.22491
              CHANNELS 3 Zrotation Xrotation Yrotation
              JOINT RightHand
              {
                OFFSET 26.5114 0 -0.101894
                CHANNELS 3 Zrotation Xrotation Yrotation
                End Site
                {
                  OFFSET 18.2168 0 0
                }
              }
            }
          }
        }
      }
    }
  }
  JOINT LeftUpLeg
  {
    OFFSET -4.76168 -1.9167 -10.2353
    CHANNELS 3 Zrotation Xrotation Yrotation
    JOINT LeftLeg
    {
      OFFSET 2.55951 -42.0585 -8.02213
      CHANNELS 3 Zrotation Xrotation Yrotation
      JOINT LeftFoot
      {
        OFFSET 3.16357 -42.5282 -3.95426
        CHANNELS 3 Zrotation Xrotation Yrotation
        JOINT LeftToeBase
        {
          OFFSET 0.346054 -6.02161 12.8035
          CHANNELS 3 Zrotation Xrotation Yrotation
          End Site
          {
            OFFSET 0.134235 -1.35082 5.13018
          }
        }
      }
    }
  }
  JOINT RightUpLeg
  {
    OFFSET -4.94151 -1.41743 10.6446
    CHANNELS 3 Zrotation Xrotation Yrotation
    JOINT RightLeg
    {
      OFFSET -2.56294 -42.0364 -7.94377
      CHANNELS 3 Zrotation Xrotation Yrotation
      JOINT RightFoot
      {
        OFFSET -3.0952 -42.555 -4.02241
        CHANNELS 3 Zrotation Xrotation Yrotation
        JOINT RightToeBase
        {
          OFFSET -0.0828122 -6.13587 12.8035
          CHANNELS 3 Zrotation Xrotation Yrotation
          End Site
          {
            OFFSET -0.131328 -1.35082 5.13018
          }
        }
      }
    }
  }
}
MOTION
Frames:	20
Frame Time:	0.0333333
-15.0794 94.4096 -111.918 71.9775 -26.3125 -6.37384 -70.1915 0 88.8779 83.7587 72.6765 2.19074 2.29994 21.8028 3.1362 -119.184 36.3857 151.77 153.383 79.6582 -122.17 0.800538 -12.5177 -20.1008 -61.1427 35.786 -135.045 19.4647 -2.67721 -96.7837 0.420957 0.000573144 0.358661 -2.06793 6.49537 46.2033 -130.555 1.78875 89.7847 9.7536 -2.21744 77.2062 0.58676 0.000330687 0.0646651 -45.8022 8.36287 97.8358 -3.13574 45.3516 -6.41869 2.39049 -14.3968 -1.24196 2.84431 -9.25555 13.8973 -43.7741 -12.9267 74.6383 2.71612 31.1317 -1.27059 -3.18067 -0.436016 0.580474 0.862172 -5.52129 -1.78282 
-15.0794 94.3866 -111.9 71.9712 -26.2759 -6.39027 -70.1915 0 88.8779 82.0636 72.725 3.58299 2.88252 21.7528 3.53283 -119.62 36.359 151.982 154.097 79.5633 -122.714 0.783683 -12.6416 -20.2742 -61.3821 36.4168 -134.808 20.0616 -2.83777 -96.9741 0.420957 0.000573144 0.358661 -2.09633 6.64503 45.903 -130.732 1.61394 89.6084 9.71238 -2.21228 77.1807 0.58676 0.000330687 0.0646651 -45.7535 8.32018 97.7583 -3.08004 45.3852 -5.90662 2.28293 -15.0902 -1.2848 2.2502 -8.20735 13.3109 -43.7852 -12.9851 74.4852 2.73782 31.1714 -1.12723 -3.86959 -0.344934 0.662784 0.884463 -5.67284 -1.83337 
-15.0794 94.4371 -111.916 72.0063 -26.3043 -6.39693 -70.1915 0 88.8779 78.4021 72.8858 6.67371 4.30734 21.752 4.38565 -121.504 36.8317 152.82 154.089 79.5507 -123.615 0.707166 -13.0907 -21.3634 -62.4565 35.3749 -134.464 19.7856 -2.68434 -96.6746 0.420957 0.000573144 0.358661 -2.02064 6.71958 44.4728 -131.174 1.03456 89.349 9.55543 -2.15681 77.282 0.58676 0.000330687 0.0646651 -45.7813 8.32069 97.763 -3.02421 45.3887 -5.44365 2.0736 -15.965 -1.34125 1.39573 -6.68691 12.6416 -43.776 -12.9606 74.6303 2.67155 31.3556 -0.970685 -3.42425 -0.522562 0.614812 0.820195 -4.98066 -1.90712 
-15.0931 94.4278 -111.89 72.0283 -26.3454 -6.35643 -70.1915 0 88.8779 78.5123 72.8803 6.52658 4.29974 21.7154 4.48235 -122.072 37.1611 153.125 152.48 79.5836 -123.036 0.726924 -12.9393 -21.2789 -62.205 36.0913 -134.309 20.3082 -2.82696 -96.8471 0.420957 0.000573144 0.358661 -2.14824 7.03257 44.8817 -131.262 1.32597 89.2601 10.1442 -2.28424 77.3193 0.58676 0.000330687 0.0646651 -45.9156 8.33046 97.8057 -3.13514 45.2861 -6.50059 2.3149 -14.5922 -1.25484 2.64075 -9.05302 14.5633 -43.8208 -12.865 74.7331 2.72722 31.3092 -0.821689 -3.08119 -0.46908 0.569555 0.940586 -5.16611 -2.77607 
-15.0697 94.4567 -111.885 72.042 -26.3176 -6.35534 -70.1915 0 88.8779 78.9872 72.8363 6.15337 4.16562 21.6987 4.3161 -121.418 36.7483 152.778 154.934 79.6205 -124.658 0.738929 -12.8634 -21.1462 -62.1344 36.4772 -134.314 20.2939 -2.79845 -96.778 0.420957 0.000573144 0.358661 -2.17918 7.09252 45.0446 -131.129 1.46893 89.3977 9.91262 -2.2413 77.2682 0.58676 0.000330687 0.0646651 -45.8938 8.33781 97.7696 -3.06609 45.282 -5.91688 2.43394 -15.207 -1.29162 1.99809 -7.82075 13.4466 -43.894 -12.8358 74.7793 2.69119 31.1803 -1.17795 -3.4361 -0.30263 0.607035 0.85184 -5.22756 -1.97986 
-15.0622 94.5019 -111.867 72.041 -26.2513 -6.4567 -70.1915 0 88.8779 78.3231 72.9649 6.43466 4.27087 21.723 4.72353 -121.212 36.7848 152.533 155.824 79.8656 -125.151 0.70986 -13.027 -21.548 -62.3087 36.2813 -134.357 20.2648 -2.75574 -96.6772 0.420957 0.000573144 0.358661 -1.98259 6.53922 44.7425 -131.147 1.35435 89.6087 9.31335 -2.11701 77.1984 0.58676 0.000330687 0.0646651 -45.8476 8.15472 97.638 -3.13929 45.341 -6.465 2.61789 -14.9269 -1.27345 1.88218 -7.88067 14.616 -44.0389 -12.9408 74.6899 2.68599 30.9008 -1.45305 -4.50273 0.0356724 0.727788 0.858394 -6.02649 -1.24811 
-15.0791 94.5103 -111.868 71.9993 -26.2384 -6.50813 -70.1915 0 88.8779 78.3539 72.9125 6.47033 4.32452 21.7065 4.56352 -121.198 36.616 152.889 154.881 79.3795 -123.561 0.728113 -12.8793 -21.5155 -62.3204 36.1391 -134.32 19.9189 -2.78826 -96.9002 0.420957 0.000573144 0.358661 -2.1958 7.22329 44.7097 -131.296 1.43537 89.1904 10.0638 -2.27281 77.2843 0.58676 0.000330687 0.0646651 -45.8093 8.07019 97.5453 -3.1917 45.3319 -6.92313 3.01717 -14.631 -1.25584 1.88099 -8.11808 15.8207 -44.0044 -12.9507 74.7184 2.68384 30.8682 -1.30318 -4.19086 -0.0440561 0.692214 0.866605 -5.70975 -1.63957 
-15.0568 94.5239 -111.884 72.0351 -26.2035 -6.49304 -70.1915 0 88.8779 78.7334 72.9129 6.09876 4.28195 21.6949 4.55915 -121.183 36.7084 152.837 154.255 79.4548 -123.41 0.734133 -12.8265 -21.5246 -62.3737 36.2378 -134.322 19.7545 -2.73528 -96.8244 0.420957 0.000573144 0.358661 -2.00821 6.64493 44.631 -131.186 1.10035 89.3602 9.52235 -2.13953 77.3336 0.58676 0.000330687 0.0646651 -45.8477 8.04584 97.5495 -3.15238 45.2718 -6.66228 3.12227 -14.3811 -1.24243 2.18439 -8.46264 15.1865 -44.0132 -12.9665 74.8382 2.65717 30.9265 -1.36748 -3.33727 -0.339043 0.594929 0.767439 -5.00464 -1.46088 
-15.0637 94.5344 -111.886 72.0801 -26.2033 -6.45417 -70.1915 0 88.8779 78.8534 72.9506 5.94485 4.30924 21.7051 4.63723 -121.25 36.7915 152.728 154.425 79.6189 -123.836 0.727165 -12.8759 -21.5712 -62.3298 36.2461 -134.458 20.1432 -2.77127 -96.7657 0.420957 0.000573144 0.358661 -2.1035 6.98162 44.4857 -131.409 1.19047 89.1044 9.81968 -2.19905 77.3758 0.58676 0.000330687 0.0646651 -45.9181 8.06078 97.5609 -3.13835 45.2294 -6.59485 2.92738 -14.6732 -1.25884 2.0315 -8.17627 14.9062 -44.1183 -12.946 74.8047 2.71925 30.8512 -1.19798 -3.51312 -0.365447 0.620081 0.871239 -5.18877 -2.16595 
-15.0263 94.4757 -111.894 72.0715 -26.1877 -6.4436 -70.1915 0 88.8779 78.679 72.8893 6.21089 4.40766 21.6974 4.47469 -121.25 36.6095 152.902 154.159 79.2748 -123.096 0.753364 -12.7136 -21.2658 -62.3551 36.2883 -134.518 20.1876 -2.78828 -96.7931 0.420957 0.000573144 0.358661 -2.16525 7.13792 44.6601 -131.43 1.25723 88.9399 10.1329 -2.26258 77.4144 0.58676 0.000330687 0.0646651 -45.9426 8.08287 97.6167 -3.06858 45.2109 -6.02584 2.59055 -15.4292 -1.30265 1.57817 -7.25059 13.9118 -44.1391 -12.9901 74.7283 2.76766 30.8315 -1.36555 -4.47679 -0.0359315 0.72717 0.909267 -5.99302 -1.73117 
-15.0096 94.5569 -111.895 72.0231 -26.1422 -6.50478 -70.1915 0 88.8779 78.2254 72.9383 6.61533 4.46658 21.7339 4.58031 -121.254 36.8742 152.969 153.315 79.4609 -122.589 0.70967 -13 -21.6805 -62.5416 36.2144 -134.28 20.1078 -2.78039 -96.8038 0.420957 0.000573144 0.358661 -2.10553 7.06012 44.1766 -131.358 1.16536 88.7396 10.1622 -2.24966 77.5117 0.58676 0.000330687 0.0646651 -45.9095 7.97818 97.544 -3.11762 45.1676 -6.4948 2.69541 -14.862 -1.26959 1.92825 -8.01938 14.9601 -44.1273 -12.9884 74.8727 2.67496 30.7631 -1.61723 -3.94802 -0.239099 0.668164 0.778415 -5.37604 -1.21058 
-14.9934 94.5127 -111.912 71.9943 -26.1929 -6.54266 -70.1915 0 88.8779 78.5735 72.9035 6.49605 4.40779 21.7734 4.28853 -121.179 36.6656 153.147 153.094 79.0919 -121.843 0.727363 -12.8754 -21.5656 -62.4464 36.1235 -134.203 20.2542 -2.83435 -96.8879 0.420957 0.000573144 0.358661 -2.17681 7.16135 44.7169 -131.418 1.38369 88.9373 10.0251 -2.23808 77.4145 0.58676 0.000330687 0.0646651 -45.9345 7.97982 97.6471 -3.11184 45.1219 -6.50052 2.9954 -14.783 -1.2646 1.91819 -7.98225 14.8456 -44.07 -12.9777 74.9113 2.73279 30.7678 -1.32647 -4.05928 -0.15411 0.679836 0.908195 -5.58789 -2.14276 
-14.9562 94.5323 -111.911 71.9929 -26.1508 -6.57295 -70.1915 0 88.8779 78.0578 72.9283 6.88295 4.5237 21.7695 4.44828 -121.188 36.6712 153.197 152.94 79.055 -121.669 0.714401 -12.9558 -21.7029 -62.5578 36.1279 -134.132 20.01 -2.80785 -96.9157 0.420957 0.000573144 0.358661 -2.13616 7.10573 44.4017 -131.463 1.20072 88.7628 10.0396 -2.22567 77.4936 0.58676 0.000330687 0.0646651 -45.9318 7.9094 97.6184 -3.10011 45.1027 -6.42435 3.17015 -14.4454 -1.24601 2.18086 -8.3223 14.4851 -44.1458 -13.0454 74.8714 2.75168 30.6544 -1.34558 -4.40499 0.0767724 0.71471 0.925191 -6.14504 -1.74698 
-14.9577 94.5758 -111.913 72.0351 -26.1386 -6.48547 -70.1915 0 88.8779 77.9226 73.0087 6.93175 4.5986 21.7831 4.71557 -121.299 36.9525 153.019 152.462 79.4013 -121.785 0.686205 -13.1517 -21.8793 -62.5623 35.955 -134.312 20.1278 -2.79969 -96.8469 0.420957 0.000573144 0.358661 -2.09431 7.10131 43.8486 -131.544 1.08203 88.5031 10.204 -2.25906 77.5117 0.58676 0.000330687 0.0646651 -45.9614 7.9163 97.4823 -3.10646 45.1243 -6.45183 2.80665 -14.7326 -1.26157 1.96181 -8.058 14.8814 -44.2044 -12.9582 74.9755 2.72422 30.662 -1.34908 -3.44401 -0.121717 0.597724 0.89798 -5.45436 -2.14367 
-14.9086 94.5445 -111.938 72.0673 -26.1437 -6.43238 -70.1915 0 88.8779 79.3229 72.9222 5.72585 4.21769 21.7189 4.45181 -121.293 36.6333 152.993 153.489 79.1593 -122.374 0.746151 -12.756 -21.3652 -62.322 35.0795 -134.857 19.5564 -2.65155 -96.6767 0.420957 0.000573144 0.358661 -2.181 7.17519 44.7145 -131.411 1.42206 88.8472 10.1854 -2.27771 77.3983 0.58676 0.000330687 0.0646651 -46.0167 7.94136 97.4861 -3.1057 45.1228 -6.44733 2.71807 -14.8563 -1.26906 1.92993 -7.95282 14.6098 -44.2412 -12.932 74.9811 2.7067 30.6739 -1.51113 -3.38367 -0.128502 0.591388 0.866671 -5.34451 -1.98474 
-14.9035 94.5561 -111.932 72.0617 -26.0608 -6.41701 -70.1915 0 88.8779 79.1105 72.9698 5.80638 4.20771 21.7004 4.7155 -121.387 36.7801 153.248 152.184 79.0107 -120.948 0.701844 -13.0476 -21.7632 -62.6168 34.6374 -134.777 19.4158 -2.58401 -96.5473 0.420957 0.000573144 0.358661 -2.10661 7.16246 43.7609 -131.542 1.01622 88.3902 10.2578 -2.26274 77.5533 0.58676 0.000330687 0.0646651 -45.95 7.91856 97.4636 -3.11953 45.1596 -6.51855 3.00695 -14.5211 -1.25002 2.17752 -8.38583 14.8317 -44.2502 -13.0017 74.864 2.7351 30.7084 -1.2904 -3.61592 -0.130288 0.621193 0.914604 -5.52375 -2.23687 
-14.8945 94.5388 -111.95 72.0502 -26.1072 -6.43562 -70.1915 0 88.8779 79.5079 73.0006 5.36923 3.99415 21.6979 4.8037 -121.191 36.696 153.058 153.07 79.1393 -121.676 0.715949 -12.9649 -21.5976 -62.5056 34.7337 -134.812 19.3396 -2.60133 -96.6253 0.420957 0.000573144 0.358661 -2.15415 7.22119 44.1591 -131.494 1.21724 88.5388 10.1218 -2.24051 77.512 0.58676 0.000330687 0.0646651 -45.9415 7.92234 97.501 -3.13808 45.2141 -6.61606 3.15842 -14.5662 -1.25378 2.12453 -8.4004 15.2951 -44.1909 -12.9938 74.8986 2.69442 30.7869 -1.19308 -3.3681 -0.273424 0.596288 0.926339 -5.37126 -2.46881 
-14.862 94.4838 -111.98 72.0478 -26.1487 -6.36766 -70.1915 0 88.8779 80.2202 72.9377 4.70873 3.72824 21.6002 4.87149 -121.269 36.6616 153.205 153.656 79.1282 -122.266 0.74788 -12.7269 -21.4379 -62.3402 34.8892 -134.863 19.4732 -2.63213 -96.6567 0.420957 0.000573144 0.358661 -2.05208 6.82824 44.4371 -131.148 1.1341 89.1997 9.50563 -2.13425 77.3414 0.58676 0.000330687 0.0646651 -45.9381 8.02906 97.5244 -3.06193 45.2818 -5.8804 2.54358 -15.6165 -1.31312 1.50625 -7.05558 13.5732 -44.1531 -12.9078 74.9749 2.65891 30.8593 -1.4626 -3.27946 -0.304541 0.587018 0.851371 -5.18662 -2.01039 
-14.8258 94.5479 -111.951 72.0502 -26.1344 -6.44412 -70.1915 0 88.8779 79.7053 72.9411 5.22436 3.90217 21.6539 4.70676 -121.174 36.6791 153.338 152.751 78.9701 -121.277 0.729606 -12.865 -21.5235 -62.3424 34.7697 -134.802 19.6165 -2.66179 -96.6806 0.420957 0.000573144 0.358661 -2.05297 6.8324 44.4313 -131.175 1.14314 89.1287 9.68345 -2.17484 77.3408 0.58676 0.000330687 0.0646651 -45.9716 7.89505 97.4767 -3.12179 45.2544 -6.42418 2.79212 -14.7814 -1.26501 2.07083 -8.2063 14.7613 -44.3383 -13.0371 74.7848 2.71123 30.5932 -1.48511 -4.26145 -0.0992224 0.701979 0.849962 -5.83902 -1.37206 
-14.7859 94.5516 -111.97 71.9562 -26.2197 -6.51233 -70.1915 0 88.8779 79.3243 72.9752 5.54696 3.87043 21.6762 4.82663 -121.102 36.6545 153.197 152.967 79.0387 -121.518 0.746789 -12.7375 -21.4311 -62.2029 34.9116 -134.954 19.4293 -2.6386 -96.6921 0.420957 0.000573144 0.358661 -2.16625 7.27846 44.0838 -131.342 1.11446 88.5554 10.4093 -2.31157 77.4814 0.58676 0.000330687 0.0646651 -45.9828 7.93282 97.628 -3.14734 45.2028 -6.7141 2.92507 -14.6856 -1.26119 2.161 -8.46456 15.2887 -44.2113 -12.9298 75.0215 2.68925 30.6269 -1.27719 -3.60649 -0.23556 0.62423 0.93744 -5.30944 -2.60723 
